<?xml version="1.0" standalone="no"?>
<!DOCTYPE svg PUBLIC "-//W3C//DTD SVG 20010904//EN"
 "http://www.w3.org/TR/2001/REC-SVG-20010904/DTD/svg10.dtd">
<svg version="1.0" xmlns="http://www.w3.org/2000/svg"
 width="300.000000pt" height="300.000000pt" viewBox="0 0 300.000000 300.000000"
 preserveAspectRatio="xMidYMid meet">
<metadata>
Created by potrace 1.10, written by Peter Selinger 2001-2011
</metadata>
<g transform="translate(0.000000,300.000000) scale(0.100000,-0.100000)"
fill="#000000" stroke="none">
<path d="M1043 2849 c-129 -49 -205 -213 -159 -341 l14 -38 -243 0 c-134 0
-250 -3 -259 -6 -14 -6 -16 -98 -16 -940 l0 -934 -180 0 c-209 0 -201 4 -190
-102 17 -158 129 -289 291 -339 58 -18 110 -19 1199 -19 1105 0 1140 1 1202
20 157 48 289 205 288 343 l0 42 -20 -25 c-19 -25 -20 -20 -20 920 0 851 -2
948 -16 968 -21 30 -11 39 28 24 39 -14 45 -10 30 23 l-12 25 -190 0 -190 0
-12 -25 c-9 -21 -8 -28 8 -46 17 -19 27 -20 166 -17 l148 3 -2 -965 -3 -965
-27 -52 c-34 -64 -87 -117 -153 -151 -44 -24 -62 -27 -145 -27 -83 0 -101 3
-145 27 -102 53 -172 153 -182 257 -3 31 -10 62 -16 68 -7 10 -132 13 -563 13
-543 0 -553 0 -564 -20 -8 -14 -8 -26 0 -40 10 -19 23 -20 533 -22 l521 -3 8
-45 c11 -65 55 -148 105 -198 25 -24 43 -45 41 -45 -2 -1 -451 0 -998 3 l-995
5 -50 26 c-90 48 -160 136 -180 226 l-7 33 438 2 c403 3 438 4 448 20 8 13 8
23 0 35 -10 16 -36 18 -263 21 l-251 2 0 898 0 897 251 -2 c246 -3 251 -3 292
-28 87 -51 208 -54 279 -7 l28 18 133 -133 c73 -73 140 -133 149 -133 21 0 48
27 48 48 0 9 -49 66 -110 125 -60 59 -110 109 -110 110 0 1 225 1 500 -1 344
-2 506 0 520 8 22 12 27 49 8 68 -9 9 -141 12 -531 12 -476 0 -519 1 -513 16
22 58 27 105 16 157 -36 173 -212 270 -377 206z m-46 -98 c-54 -59 -67 -92
-67 -163 0 -68 13 -98 69 -155 40 -43 91 -63 155 -63 66 0 132 39 179 106 30
44 32 45 35 20 2 -14 16 -36 31 -49 25 -21 27 -26 15 -42 -17 -23 -18 -57 -1
-75 6 -8 -1 -3 -18 11 -71 62 -78 64 -145 39 -79 -29 -164 -24 -230 14 -25 14
-56 26 -70 26 -14 0 -32 4 -40 10 -12 8 -12 11 2 27 14 15 15 33 11 100 -7
100 11 157 63 203 48 42 53 38 11 -9z m226 15 c96 -39 141 -157 98 -251 -64
-139 -251 -154 -332 -27 -48 75 -35 189 27 243 55 48 142 63 207 35z m-763
-344 c0 -5 -9 -17 -20 -27 -19 -18 -20 -17 -20 2 0 11 3 23 7 26 9 10 33 9 33
-1z m-15 -1842 c23 -26 16 -32 -29 -28 -36 3 -36 3 -21 26 20 27 27 27 50 2z
m-355 -39 c0 -5 -7 -14 -15 -21 -8 -7 -15 -19 -15 -26 0 -23 -16 -16 -29 13
-10 21 -9 28 1 34 17 11 58 11 58 0z m2114 -7 c4 -9 4 -19 1 -22 -6 -6 -35 18
-35 29 0 16 28 10 34 -7z m242 -330 c24 -9 44 -21 44 -25 0 -12 -167 -12 -174
0 -3 5 1 14 9 21 20 16 19 35 -2 68 -17 24 -14 24 30 -10 27 -20 68 -44 93
-54z"/>
<path d="M1758 1759 c-16 -9 -18 -31 -18 -239 0 -125 3 -235 6 -244 8 -21 92
-21 165 0 129 38 194 109 193 214 -1 120 -94 214 -263 264 -63 19 -61 18 -83
5z m67 -48 c3 -6 -5 -19 -17 -31 -20 -18 -23 -19 -26 -5 -8 35 26 63 43 36z
m71 -71 c76 -37 114 -82 121 -143 4 -33 0 -48 -17 -70 -26 -33 -84 -64 -137
-73 l-38 -6 0 161 c0 89 2 161 4 161 2 0 32 -14 67 -30z m-78 -321 c12 -19 11
-20 -10 -17 -15 2 -24 11 -26 25 -4 28 17 23 36 -8z"/>
<path d="M812 1708 c-18 -18 -14 -56 7 -68 11 -5 42 -10 70 -10 l51 0 0 -173
c0 -183 3 -197 47 -197 38 0 44 29 41 205 l-3 165 57 0 c76 0 102 24 78 71
-10 18 -23 19 -173 19 -114 0 -167 -4 -175 -12z m208 -33 c0 -3 -7 -17 -16
-31 l-17 -25 -23 22 c-33 31 -30 39 16 39 22 0 40 -2 40 -5z"/>
<path d="M1295 1704 c-131 -68 -161 -277 -57 -387 78 -82 187 -76 255 15 36
49 50 101 45 178 -3 53 -10 77 -34 116 -50 82 -138 115 -209 78z m106 -87 c78
-60 69 -225 -14 -265 -22 -11 -32 -11 -54 0 -34 16 -73 90 -73 138 0 43 32
114 57 129 24 14 64 13 84 -2z"/>
<path d="M2313 1694 c-115 -68 -139 -264 -46 -375 34 -40 74 -59 124 -59 160
0 244 239 135 383 -59 78 -137 97 -213 51z m119 -75 c27 -14 58 -85 58 -134 0
-49 -26 -102 -62 -129 -27 -19 -29 -19 -63 -3 -24 12 -41 29 -52 55 -50 121
27 260 119 211z"/>
<path d="M1238 1099 c-22 -12 -23 -42 -2 -63 14 -14 73 -16 499 -16 426 0 485
2 499 16 9 8 16 22 16 29 0 7 -7 21 -16 29 -14 14 -72 16 -497 16 -309 0 -488
-4 -499 -11z"/>
<path d="M1320 850 c-8 -14 -8 -26 0 -40 11 -20 19 -20 348 -18 l337 3 0 35 0
35 -337 3 c-329 2 -337 2 -348 -18z"/>
</g>
</svg>
